<svg width="15" height="11" viewBox="0 0 15 11" fill="none" xmlns="http://www.w3.org/2000/svg">
<path d="M14.0414 3.97266C14.1508 3.89062 14.3148 3.97266 14.3148 4.10938V9.6875C14.3148 10.4258 13.7133 11 13.0023 11H1.62732C0.889038 11 0.314819 10.4258 0.314819 9.6875V4.10938C0.314819 3.97266 0.451538 3.89062 0.560913 3.97266C1.18982 4.46484 1.98279 5.06641 4.77185 7.08984C5.34607 7.5 6.33044 8.40234 7.31482 8.40234C8.27185 8.40234 9.28357 7.5 9.83044 7.08984C12.6195 5.06641 13.4125 4.46484 14.0414 3.97266ZM7.31482 7.5C6.65857 7.52734 5.75623 6.70703 5.29138 6.37891C1.65466 3.75391 1.38123 3.50781 0.560913 2.85156C0.396851 2.74219 0.314819 2.55078 0.314819 2.33203V1.8125C0.314819 1.10156 0.889038 0.5 1.62732 0.5H13.0023C13.7133 0.5 14.3148 1.10156 14.3148 1.8125V2.33203C14.3148 2.55078 14.2054 2.74219 14.0414 2.85156C13.2211 3.50781 12.9476 3.75391 9.31091 6.37891C8.84607 6.70703 7.94373 7.52734 7.31482 7.5Z" fill="white"/>
</svg>
