<svg width="15" height="15" viewBox="0 0 15 15" fill="none" xmlns="http://www.w3.org/2000/svg">
<path d="M14.5188 10.6484C14.7375 10.7578 14.9016 11.0039 14.9016 11.2773C14.9016 11.3047 14.9016 11.3594 14.9016 11.4141L14.2454 14.2578C14.1633 14.5586 13.9172 14.75 13.6165 14.75C6.58911 14.75 0.928955 9.08984 0.928955 2.0625C0.928955 1.76172 1.12036 1.51562 1.42114 1.43359L4.26489 0.777344C4.31958 0.777344 4.37427 0.75 4.40161 0.75C4.67505 0.75 4.92114 0.914062 5.03052 1.16016L6.34302 4.22266C6.37036 4.30469 6.39771 4.38672 6.39771 4.46875C6.39771 4.6875 6.28833 4.87891 6.15161 4.98828L4.48364 6.35547C5.49536 8.48828 7.19067 10.1836 9.32349 11.1953L10.6907 9.52734C10.8 9.39062 10.9915 9.28125 11.1829 9.28125C11.2922 9.28125 11.3743 9.30859 11.4563 9.33594L14.5188 10.6484Z" fill="white"/>
</svg>
