<svg width="150" height="25" viewBox="0 0 150 25" fill="none" xmlns="http://www.w3.org/2000/svg">
<path fill-rule="evenodd" clip-rule="evenodd" d="M9.64509 24.6708C14.2305 24.6708 18.4205 22.5779 18.4205 17.5835C18.4205 12.9855 14.3253 11.5585 10.9416 10.4962C8.44341 9.71933 6.27722 9.1644 6.27722 7.62644C6.27722 6.00921 7.68445 5.27987 9.45535 5.27987C11.4792 5.27987 12.7916 6.23118 13.1711 8.43506L18.3573 7.15078C17.4086 2.55277 13.1711 0.919678 9.12331 0.919678C4.31658 0.919678 0.838016 3.45651 0.838016 7.76914C0.838016 12.0183 4.45888 13.3185 7.76351 14.3966C10.4515 15.2528 12.839 15.9187 12.839 17.8848C12.8549 19.5179 11.6215 20.3106 9.88227 20.3106C7.55796 20.3106 5.81868 19.0422 5.58151 16.4895L0 17.7738C0.6799 22.2608 4.66443 24.6708 9.64509 24.6708ZM31.0111 7.48367C28.6394 7.48367 26.7578 8.3557 25.5403 9.76682V0H20.3857V24.3536H25.5403V15.4747C25.5719 12.3037 27.4535 11.606 29.0347 11.606C30.6 11.606 31.8333 12.3037 31.8333 14.6027V24.3536H37.0195V13.7782C37.0195 9.57656 34.8534 7.48367 31.0111 7.48367ZM55.4288 15.871L55.3655 17.0919H43.3645C43.5859 19.486 45.2303 20.6276 47.2384 20.6276C48.7563 20.6276 49.9105 19.9775 50.4639 18.6457L55.2074 19.2958C54.148 22.7363 51.0964 24.6707 47.27 24.6707C41.7517 24.6707 38.2574 21.5313 38.2574 16.093C38.2574 10.6388 41.8624 7.4519 47.0961 7.4519C51.8395 7.4519 55.3972 10.0046 55.4288 15.871ZM47.1277 11.0669C45.2303 11.0669 43.9496 11.8597 43.5069 13.7623H50.3533C50.0687 11.9865 48.7879 11.0669 47.1277 11.0669ZM68.5202 24.6708C73.8329 24.6708 78.0388 21.8961 79.6357 17.3616L74.6077 15.5541C73.7222 18.186 71.3821 19.7398 68.5202 19.7398C64.8044 19.7398 62.0058 17.1079 62.0058 12.7952C62.0058 8.48262 64.8044 5.85065 68.5202 5.85065C71.3821 5.85065 73.7222 7.40447 74.6077 10.0364L79.6357 8.22894C78.0388 3.69434 73.8329 0.919678 68.5202 0.919678C61.6579 0.919678 56.6456 5.58111 56.6456 12.7952C56.6456 20.0094 61.6579 24.6708 68.5202 24.6708ZM89.0325 24.6707C83.6091 24.6707 79.7669 21.4997 79.7669 16.0613C79.7669 10.6547 83.5775 7.48364 89.0325 7.48364C94.5033 7.48364 98.3139 10.6547 98.3139 16.0613C98.3139 21.4997 94.4875 24.6707 89.0325 24.6707ZM88.9693 20.6119C91.5149 20.6119 93.191 18.7727 93.191 16.0615C93.191 13.3661 91.5149 11.5269 88.9693 11.5269C86.5343 11.5269 84.8899 13.3661 84.8899 16.0615C84.8899 18.7727 86.5343 20.6119 88.9693 20.6119ZM111.411 0H116.565V24.3536H111.695L111.569 22.4986C110.667 23.9573 108.738 24.75 106.588 24.75C102.208 24.75 98.5873 21.579 98.5873 16.1248C98.5873 10.6706 102.224 7.48367 106.588 7.48367C108.612 7.48367 110.446 8.1813 111.411 9.49728V0ZM107.79 20.485C110.066 20.485 111.837 18.8361 111.837 16.1248C111.837 13.4136 110.066 11.7488 107.79 11.7488C105.513 11.7488 103.742 13.366 103.742 16.1248C103.742 18.8678 105.513 20.485 107.79 20.485ZM135.322 15.871L135.259 17.0919H123.258C123.479 19.486 125.124 20.6276 127.132 20.6276C128.65 20.6276 129.804 19.9775 130.357 18.6457L135.101 19.2958C134.042 22.7363 130.99 24.6707 127.163 24.6707C121.645 24.6707 118.151 21.5313 118.151 16.093C118.151 10.6388 121.756 7.4519 126.99 7.4519C131.733 7.4519 135.291 10.0046 135.322 15.871ZM127.021 11.0669C125.124 11.0669 123.843 11.8597 123.4 13.7623H130.247C129.962 11.9865 128.681 11.0669 127.021 11.0669ZM142.964 24.6707C146.664 24.6707 150 23.3072 150 19.4226C150 15.8552 147.201 14.6819 144.672 13.9843C142.616 13.4135 140.719 13.2074 140.719 12.05C140.719 11.2413 141.588 10.8767 142.711 10.8767C143.96 10.8767 144.893 11.3523 145.43 12.7634L149.383 11.8914C148.719 8.6728 145.968 7.49951 142.695 7.49951C138.9 7.49951 136.038 9.08503 136.038 12.5256C136.038 15.2527 137.809 16.3467 139.691 17.0444C142.284 18.0432 145.035 18.1067 145.035 19.7556C145.051 20.8496 143.976 21.1192 142.995 21.1192C141.604 21.1192 140.466 20.5642 139.928 18.8677L135.643 20.0727C136.26 23.2596 139.201 24.6707 142.964 24.6707Z" fill="white"/>
</svg>
